<svg xmlns="http://www.w3.org/2000/svg" version="1.1" xmlns:xlink="http://www.w3.org/1999/xlink" xmlns:svgjs="http://svgjs.dev/svgjs" width="1000" height="1000" viewBox="0 0 1000 1000"><rect width="1000" height="1000" fill="#ffffff"></rect><g transform="matrix(0.7,0,0,0.7,149.57605563665675,321.637159776842)"><svg viewBox="0 0 396 202" data-background-color="#ffffff" preserveAspectRatio="xMidYMid meet" height="510" width="1000" xmlns="http://www.w3.org/2000/svg" xmlns:xlink="http://www.w3.org/1999/xlink"><g id="tight-bounds" transform="matrix(1,0,0,1,0.24008861730862918,-0.07760861322711321)"><svg viewBox="0 0 395.52 202.15492643486317" height="202.15492643486317" width="395.52"><g><svg viewBox="0 0 395.52 202.15492643486317" height="202.15492643486317" width="395.52"><g><svg viewBox="0 0 395.52 202.15492643486317" height="202.15492643486317" width="395.52"><g id="textblocktransform"><svg viewBox="0 0 395.52 202.15492643486317" height="202.15492643486317" width="395.52" id="textblock"><g><svg viewBox="0 0 395.52 202.15492643486317" height="202.15492643486317" width="395.52"><path d="M394.594 43.358C392.735 22.375 387.435 16.541 387.435 16.541 371.165-5.072 350.86-0.413 332.619 2.692 300.414 2.818 268.339 7.434 236.208 9.91 168.767 10.288 100.749 4.077 33.643 19.395 27.339 24.095-6.54 20.318 1.121 46.044 3.129 56.746 10.456 68.623 10.232 78.443 11.236 80.164 12.631 76.219 13.226 78.695 15.309 85.368 18.711 82.22 21.501 86.165 17.614 96.699 20.403 105.47 23.062 114.661 18.377 117.053 12.371 115.92 9.675 123.851 9.396 129.601 7.89 128.51 6.235 128.258 5.026 128.09 2.59 128.72 2.999 130.524 4.394 136.693-1.594 140.261 2.162 146.304-0.422 152.851 3.948 158.516 3.353 165.609 3.278 167.036 3.687 168.253 4.338 168.589 7.22 170.393 3.018 173.918 3.464 177.737 33.029 203.841 65.104 185.795 95.394 197.798 103.259 189.404 97.346 200.777 100.489 199.015 102.943 196.958 104.728 205.478 107.499 200.652 107.927 199.267 107.276 195.993 108.8 196.623 109.6 196.958 110.307 196.874 110.418 194.944 110.586 192.048 109.117 193.853 108.726 192.342 112.947 184.704 111.906 202.876 115.866 202.12 115.68 199.896 114.528 196.707 116.889 197.126 119.232 193.937 119.306 191.293 121.389 198.469 121.463 200.022 121.835 201.113 122.43 201.869 128.938 194.063 135.409 204.638 142.233 201.113 146.417 197.252 150.433 203.212 154.672 201.743 156.16 200.568 157.666 198.469 159.098 201.994 176.632 202.75 195.319 199.602 211.943 202.12 256.364 197.42 303.835 204.051 350.674 197.84 361.719 195.448 373.192 192.048 383.958 189.32 383.958 189.32 392.679 181.85 392.679 148.276S394.538 118.899 394.817 92.166C395.096 65.433 396.398 64.342 394.538 43.358Z" opacity="1" fill="#000000" data-fill-palette-color="tertiary"></path><g transform="matrix(1,0,0,1,55.76832,26.230666666666668)"><svg width="283.98335999999995" viewBox="2 -37.5 71.9000015258789 37.900001525878906" height="149.69359310152984" data-palette-color="#ffffff"><path d="M28.5 0Q27.75 0 26.55-1.93 25.35-3.85 23.2-8.05L23.2-8.05Q21.35-11.65 20.1-13.85 18.85-16.05 17.7-17.5L17.7-17.5 13.25-12.4 13.25-3.5 17.55-2.95 17.55 0 2 0 2-3 5.95-3.5 5.95-33.4 2.05-34.05 2.05-37.15 17.1-37.15 17.1-34.05 13.25-33.4 13.25-17.1 26.4-33.4 22.3-34.05 22.3-37.15 35.8-37.15 35.8-34.05 31.65-33.4 21.95-22.5Q23.7-20.9 25.65-17.98 27.6-15.05 30.4-10.35L30.4-10.35Q32.45-6.9 33.5-5.33 34.55-3.75 35.1-3.5L35.1-3.5 37.45-2.95 37.45 0 28.5 0ZM43.2-3.5L43.2-33.4 39.45-34.05 39.45-37.15 46.75-37.15Q48.4-37.15 51.2-37.35L51.2-37.35Q51.85-37.4 53.17-37.45 54.5-37.5 55.55-37.5L55.55-37.5Q64.75-37.5 69.32-32.9 73.9-28.3 73.9-19.85L73.9-19.85Q73.9-13.95 71.62-9.35 69.35-4.75 65.15-2.18 60.95 0.4 55.35 0.4L55.35 0.4Q53.9 0.4 50.8 0.2L50.8 0.2Q47.9 0 46.85 0L46.85 0 39.25 0 39.25-3 43.2-3.5ZM50.45-3.35Q52.15-2.9 55.2-2.9L55.2-2.9Q60.2-3 63.05-6.93 65.9-10.85 65.9-18.7L65.9-18.7Q65.9-26.15 63.1-30.23 60.3-34.3 54.4-34.3L54.4-34.3Q53.15-34.3 52.02-34.15 50.9-34 50.45-33.95L50.45-33.95 50.45-3.35Z" opacity="1" transform="matrix(1,0,0,1,0,0)" fill="#ffffff" class="wordmark-text-0" data-fill-palette-color="quaternary" id="text-0"></path></svg></g></svg></g></svg></g></svg></g><g></g></svg></g><defs></defs></svg><rect width="395.52" height="202.15492643486317" fill="none" stroke="none" visibility="hidden"></rect></g></svg></g></svg>