<svg xmlns="http://www.w3.org/2000/svg" version="1.1" xmlns:xlink="http://www.w3.org/1999/xlink" xmlns:svgjs="http://svgjs.dev/svgjs" width="1000" height="565" viewBox="0 0 1000 565"><g transform="matrix(1,0,0,1,-0.606035804930741,-0.420318493548848)"><svg viewBox="0 0 396 224" data-background-color="#444444" preserveAspectRatio="xMidYMid meet" height="565" width="1000" xmlns="http://www.w3.org/2000/svg" xmlns:xlink="http://www.w3.org/1999/xlink"><g id="tight-bounds" transform="matrix(1,0,0,1,0.23999017875257778,0.16663954434503125)"><svg viewBox="0 0 395.52 223.66672091130994" height="223.66672091130994" width="395.52"><g><svg viewBox="0 0 395.52 223.66672091130994" height="223.66672091130994" width="395.52"><g><svg viewBox="0 0 395.52 223.66672091130994" height="223.66672091130994" width="395.52"><g id="textblocktransform"><svg viewBox="0 0 395.52 223.66672091130994" height="223.66672091130994" width="395.52" id="textblock"><g><svg viewBox="0 0 395.52 223.66672091130994" height="223.66672091130994" width="395.52"><g transform="matrix(1,0,0,1,0,0)"><svg width="395.52" viewBox="3.75 -34.75 61.44999694824219 34.75" height="223.66672091130994" data-palette-color="#ffffff"><path d="M30.35 0L22.9 0 9.45-15.55 9.45 0 3.75 0 3.75-34.75 9.45-34.75 9.45-18.9 22.95-34.75 30.1-34.75 15-17.35 30.35 0ZM46.75-34.75Q52.3-34.75 56.47-32.63 60.65-30.5 62.92-26.53 65.2-22.55 65.2-17.25L65.2-17.25Q65.2-11.95 62.92-8.05 60.65-4.15 56.47-2.08 52.3 0 46.75 0L46.75 0 35.4 0 35.4-34.75 46.75-34.75ZM46.75-4.65Q52.85-4.65 56.1-7.95 59.35-11.25 59.35-17.25L59.35-17.25Q59.35-23.3 56.1-26.7 52.85-30.1 46.75-30.1L46.75-30.1 41.1-30.1 41.1-4.65 46.75-4.65Z" opacity="1" transform="matrix(1,0,0,1,0,0)" fill="#ffffff" class="wordmark-text-0" data-fill-palette-color="primary" id="text-0"></path></svg></g></svg></g></svg></g></svg></g></svg></g><defs></defs></svg><rect width="395.52" height="223.66672091130994" fill="none" stroke="none" visibility="hidden"></rect></g></svg></g></svg>